<svg width="36" height="20" viewBox="0 0 36 20" fill="none" xmlns="http://www.w3.org/2000/svg">
<path opacity="0.7" d="M10.0835 14.75C11.4029 14.75 12.5245 14.2882 13.4481 13.3646C14.3717 12.441 14.8335 11.3194 14.8335 10C14.8335 8.68056 14.3717 7.55903 13.4481 6.63542C12.5245 5.71181 11.4029 5.25 10.0835 5.25C8.76405 5.25 7.64252 5.71181 6.71891 6.63542C5.7953 7.55903 5.3335 8.68056 5.3335 10C5.3335 11.3194 5.7953 12.441 6.71891 13.3646C7.64252 14.2882 8.76405 14.75 10.0835 14.75ZM10.0835 19.5C7.44461 19.5 5.20155 18.5764 3.35433 16.7292C1.50711 14.8819 0.583496 12.6389 0.583496 10C0.583496 7.36111 1.50711 5.11806 3.35433 3.27083C5.20155 1.42361 7.44461 0.5 10.0835 0.5C12.221 0.5 14.0883 1.10694 15.6853 2.32083C17.2813 3.53472 18.396 5.03889 19.0293 6.83333H32.2502L35.4168 9.92083L29.0835 16.3333L25.9168 13.1667L22.7502 16.3333L19.5835 13.1667H19.0293C18.3696 15.0667 17.2217 16.5972 15.5856 17.7583C13.9495 18.9194 12.1154 19.5 10.0835 19.5Z" fill="#00194C"/>
</svg>
