<svg width="26" height="26" viewBox="0 0 26 26" fill="none" xmlns="http://www.w3.org/2000/svg">
<path d="M13.0002 13C11.2585 13 9.76752 12.3798 8.52725 11.1396C7.28697 9.89929 6.66683 8.40831 6.66683 6.66665C6.66683 4.92498 7.28697 3.43401 8.52725 2.19373C9.76752 0.953452 11.2585 0.333313 13.0002 0.333313C14.7418 0.333313 16.2328 0.953452 17.4731 2.19373C18.7134 3.43401 19.3335 4.92498 19.3335 6.66665C19.3335 8.40831 18.7134 9.89929 17.4731 11.1396C16.2328 12.3798 14.7418 13 13.0002 13ZM0.333496 25.6666V21.2333C0.333496 20.3361 0.564663 19.5112 1.027 18.7586C1.48827 18.007 2.10155 17.4333 2.86683 17.0375C4.50294 16.2194 6.16544 15.6056 7.85433 15.1961C9.54322 14.7876 11.2585 14.5833 13.0002 14.5833C14.7418 14.5833 16.4571 14.7876 18.146 15.1961C19.8349 15.6056 21.4974 16.2194 23.1335 17.0375C23.8988 17.4333 24.5121 18.007 24.9733 18.7586C25.4357 19.5112 25.6668 20.3361 25.6668 21.2333V25.6666H0.333496Z" fill="#00194C"/>
</svg>
