<svg width="50" height="50" viewBox="0 0 50 50" fill="none" xmlns="http://www.w3.org/2000/svg">
<path fill-rule="evenodd" style="fill: #fff;" clip-rule="evenodd" d="M1.34961 0.0413542C0.896921 0.162229 0.650222 0.311179 0.429002 0.597149C-0.0365788 1.19902 0.000710851 -0.480436 0.000710851 19.8885C0.000710851 40.2534 -0.0363989 38.5783 0.427923 39.1785C0.907173 39.798 -0.00576404 39.746 10.7739 39.7679L20.3182 39.7872L20.2887 40.1251C20.2724 40.3109 20.194 41.4481 20.1145 42.6522C19.9583 45.0181 19.9091 45.3049 19.5305 46.0565C19.2326 46.648 18.7615 47.1014 17.5258 47.9859C16.9051 48.4302 16.3556 48.832 16.3047 48.8789C16.006 49.1535 15.9228 49.6131 16.1276 49.8571C16.2464 49.9987 16.3274 50 24.9731 50H33.6987L33.8459 49.8246C34.0165 49.6213 34.0276 49.5011 33.9025 49.2128C33.7961 48.9676 33.4617 48.6906 32.1732 47.7803C31.1153 47.033 30.6526 46.5324 30.3422 45.7997C30.0431 45.0934 29.9781 44.6942 29.886 42.999C29.7951 41.3246 29.7539 40.6943 29.6985 40.1246L29.6655 39.7864L39.1583 39.7675L48.6511 39.7485L48.9902 39.5851C49.3419 39.4157 49.7257 38.9946 49.905 38.5815C49.991 38.3833 50 36.6096 50 19.8892C50 1.82818 49.9974 1.40998 49.8852 1.1508C49.7509 0.840898 49.387 0.410908 49.1307 0.259386C49.0318 0.200877 48.8079 0.117008 48.6332 0.0729303C48.4012 0.0144218 41.9961 -0.00500985 24.8925 0.00106245C12.0098 0.00563454 1.41556 0.0237802 1.34961 0.0413542ZM47.602 19.7099V35.355H24.9704H2.33881V19.7576C2.33881 11.1789 2.35679 4.13859 2.37879 4.11244C2.40074 4.08622 12.5849 4.06479 25.0104 4.06479H47.602V19.7099ZM18.9038 9.70918C18.5727 9.86806 18.4988 10.4565 18.7727 10.7524C18.8829 10.8714 19.0296 10.8914 20.0269 10.9229L21.1562 10.9586L20.7552 11.4985C20.5346 11.7955 19.5061 13.187 18.4695 14.591C17.433 15.9949 16.551 17.1343 16.5094 17.123C16.4679 17.1116 15.4875 16.2023 14.3307 15.1021C13.1739 14.0019 12.1374 13.0447 12.0275 12.9749C11.6978 12.7656 11.6881 12.7738 10.0425 14.6362C9.74578 14.9721 9.0579 15.7448 8.5139 16.3532C7.58028 17.3976 6.90529 18.1553 5.9788 19.1991C5.58277 19.6453 5.57617 19.6589 5.57617 20.0227C5.57617 20.4942 5.69505 20.7102 5.95428 20.7096C6.05956 20.7093 6.21627 20.653 6.30254 20.5845C6.38887 20.5161 7.54892 19.2371 8.88044 17.7423C10.212 16.2476 11.4273 14.8879 11.581 14.7208L11.8605 14.4169L14.039 16.4987C15.2372 17.6437 16.3039 18.6254 16.4095 18.6803C16.6275 18.7938 16.7971 18.7423 17.0142 18.4969C17.1773 18.3126 21.5762 12.396 21.6954 12.2008C21.7406 12.1266 21.8013 12.0659 21.8303 12.0659C21.8592 12.0659 21.8829 12.5989 21.8829 13.2502V14.4344L22.0655 14.652C22.2228 14.8394 22.2786 14.8638 22.4666 14.8274C22.5868 14.8042 22.7406 14.719 22.8085 14.638C22.928 14.4957 22.932 14.4174 22.932 12.2364V9.98186L22.7638 9.80941L22.5956 9.63703L20.8154 9.64153C19.8363 9.64403 18.9761 9.67446 18.9038 9.70918ZM36.5709 14.3877C36.5709 16.9613 36.585 19.067 36.6022 19.067C36.625 19.067 42.5203 13.8261 42.681 13.6628C42.7911 13.5512 41.9928 12.4954 41.3368 11.885C39.9952 10.6367 38.1484 9.70868 37.0056 9.70854L36.5709 9.70847V14.3877ZM34.4268 10.5298C33.3501 10.7624 32.178 11.3746 31.2918 12.1674C30.6599 12.7326 29.8054 13.7893 29.4101 14.4942C28.5052 16.108 28.0579 17.8568 28.0579 19.7813C28.0579 22.2776 28.8013 24.4745 30.2593 26.2869C32.2574 28.7707 35.1165 29.739 37.9357 28.8868C38.4607 28.7281 39.7483 28.0671 39.7483 27.9564C39.7483 27.9293 39.1076 26.7221 38.3245 25.2737C35.7621 20.5346 35.5634 20.148 35.4954 19.7698C35.4545 19.5428 35.4319 17.8144 35.4319 14.92V10.4229L35.1471 10.4293C34.9905 10.4329 34.6663 10.4781 34.4268 10.5298ZM40.1316 17.5302C38.3876 19.089 36.9695 20.4021 36.9803 20.448C36.9911 20.4939 37.9082 22.2091 39.0181 24.2595L41.0363 27.9875L41.2466 27.7991C42.564 26.6194 43.6195 24.8139 44.1172 22.8889C44.4001 21.7952 44.5041 20.9579 44.5034 19.7813C44.5022 17.9833 44.1393 16.2977 43.4826 15.0404L43.3026 14.6959L40.1316 17.5302ZM20.1068 17.4731C20.0367 17.4895 19.9153 17.5842 19.837 17.6834L19.6947 17.8639L19.6765 23.1626C19.6637 26.9117 19.6779 28.5411 19.7253 28.7346C19.829 29.1585 20.0001 29.2114 21.2665 29.2109C21.8528 29.2106 22.4358 29.1763 22.5621 29.1345C22.9765 28.9974 22.962 29.2079 22.962 23.3176C22.962 17.4273 22.9765 17.6378 22.5621 17.5007C22.3467 17.4294 20.3878 17.4074 20.1068 17.4731ZM10.3906 19.5965L10.2224 19.7689L10.2057 24.1659C10.1868 29.1215 10.1771 28.9971 10.5923 29.1345C10.8903 29.2331 12.7918 29.2331 13.0899 29.1345C13.5051 28.9971 13.4954 29.1215 13.4765 24.1659L13.4598 19.7689L13.2915 19.5965C13.1251 19.4259 13.1101 19.4242 11.8411 19.4242C10.5721 19.4242 10.557 19.4259 10.3906 19.5965ZM15.4981 21.3848C15.4651 21.3997 15.3622 21.4319 15.2693 21.4564C14.9384 21.5437 14.9286 21.6544 14.9286 25.2821C14.9286 29.007 14.928 29.002 15.3284 29.1345C15.6351 29.236 17.6135 29.2341 17.859 29.1321C18.2271 28.9792 18.2259 28.9918 18.2259 25.2904C18.2259 23.3381 18.202 21.859 18.1688 21.7549C18.0648 21.4291 17.919 21.3913 16.6971 21.3739C16.0706 21.3649 15.5311 21.3699 15.4981 21.3848ZM5.65447 23.5256L5.48624 23.698L5.4676 26.0795C5.44656 28.7769 5.46472 28.9487 5.78786 29.1097C6.07347 29.2519 8.13123 29.2544 8.41546 29.1129C8.74975 28.9465 8.76 28.8529 8.74093 26.1474L8.72361 23.698L8.55539 23.5256C8.38896 23.3551 8.37379 23.3533 7.10493 23.3533C5.83606 23.3533 5.82089 23.3551 5.65447 23.5256Z" fill="white"/>
</svg>
