<svg width="50" height="50" viewBox="0 0 50 50" fill="none" xmlns="http://www.w3.org/2000/svg">
<path fill-rule="evenodd" style="fill: #fff;" clip-rule="evenodd" d="M22.5876 0.3043L22.2113 0.608599L22.1662 7.07181L22.1213 13.535H14.2562C6.74988 13.535 6.37397 13.5489 6.01495 13.8395L5.63872 14.1438L5.59665 30.9573L5.55474 47.7707H3.09848H0.64223L0.312053 48.1903C-0.121704 48.7412 -0.104971 49.1317 0.372926 49.6091L0.763975 50H25H49.236L49.6271 49.6091C50.105 49.1317 50.1217 48.7412 49.6879 48.1903L49.3578 47.7707H46.9009H44.4441L44.4027 24.1898L44.3613 0.608758L43.9851 0.304459C43.6233 0.0116246 43.2124 0 33.2863 0C23.3617 0 22.9493 0.0117839 22.5876 0.3043ZM42.21 25V47.7707H40.2978H38.3856V42.0906C38.3856 37.0287 38.3569 36.3787 38.1219 36.1193C37.878 35.8502 37.5139 35.828 33.314 35.828C29.3092 35.828 28.7352 35.8592 28.4785 36.0916C28.2065 36.3376 28.187 36.7355 28.187 42.0629V47.7707H26.2748H24.3626V25V2.2293H33.2863H42.21V25ZM27.4628 5.00876C27.0858 5.38535 27.0716 5.47818 27.0716 7.56369C27.0716 9.6492 27.0858 9.74204 27.4628 10.1186L27.8538 10.5096H33.3309H38.808L39.1546 10.1411C39.4755 9.79952 39.501 9.61178 39.501 7.58599C39.501 5.47691 39.4872 5.38567 39.1098 5.00876L38.7188 4.61783H33.2863H27.8538L27.4628 5.00876ZM37.2701 7.56369V8.28026H33.2863H29.3025V7.56369V6.84713H33.2863H37.2701V7.56369ZM27.7592 12.7368C27.1739 12.9777 27.0716 13.4147 27.0716 15.6742C27.0716 17.6221 27.103 17.8658 27.3903 18.1529C27.6969 18.4592 27.9214 18.4713 33.2863 18.4713C38.6512 18.4713 38.8757 18.4592 39.1823 18.1529C39.4704 17.865 39.501 17.6221 39.501 15.6228C39.501 13.6828 39.4636 13.3648 39.1965 13.0352L38.8922 12.6592L33.4997 12.6264C30.534 12.6083 27.9507 12.658 27.7592 12.7368ZM37.2701 15.5255V16.242H33.2863H29.3025V15.5255V14.8089H33.2863H37.2701V15.5255ZM22.1317 31.7675V47.7707H14.9608H7.78997V31.7675V15.7643H14.9608H22.1317V31.7675ZM9.99875 18.4573C9.63431 18.7522 9.62252 18.8347 9.62252 21.0987C9.62252 24.3137 9.12598 24.0446 15.0582 24.0446C19.529 24.0446 19.7559 24.0301 20.0601 23.7261C20.3495 23.4369 20.3788 23.1954 20.3788 21.0987C20.3788 19.0021 20.3495 18.7605 20.0601 18.4713C19.7559 18.1674 19.529 18.1529 15.0582 18.1529C10.6844 18.1529 10.3501 18.1729 9.99875 18.4573ZM18.1479 21.0987V21.8153H14.9608H11.7738V21.0987V20.3822H14.9608H18.1479V21.0987ZM27.3965 21.0492C27.1019 21.3651 27.0716 21.6037 27.0716 23.6041C27.0716 25.7346 27.0851 25.8242 27.4628 26.2014L27.8538 26.5924H33.2863H38.7188L39.1098 26.2014C39.4881 25.8236 39.501 25.7365 39.501 23.574C39.501 21.5498 39.4708 21.3073 39.1823 21.0191C38.8757 20.7127 38.6512 20.7006 33.2925 20.7006C27.7667 20.7006 27.7187 20.7035 27.3965 21.0492ZM37.2701 23.6465V24.3631H33.2863H29.3025V23.6465V22.9299H33.2863H37.2701V23.6465ZM9.87318 26.5342C9.57965 26.9072 9.54284 27.172 9.54284 28.9153C9.54284 30.0686 9.61933 31.0444 9.72849 31.2838C10.0348 31.9556 10.6725 32.0338 15.3826 31.978C19.3718 31.9307 19.7345 31.9032 20.0437 31.6234C20.3552 31.3414 20.3788 31.1561 20.3788 28.9809C20.3788 26.917 20.3445 26.6107 20.0873 26.3782C19.8298 26.1452 19.2391 26.1147 14.9997 26.1147H10.2034L9.87318 26.5342ZM18.1479 29.0639V29.7838L15.0007 29.7406L11.8534 29.6975L11.8045 29.0207L11.7554 28.344H14.9517H18.1479V29.0639ZM9.99875 34.2217C9.63431 34.5166 9.62252 34.599 9.62252 36.8631C9.62252 40.078 9.12598 39.8089 15.0582 39.8089C19.529 39.8089 19.7559 39.7944 20.0601 39.4904C20.3495 39.2013 20.3788 38.9597 20.3788 36.8631C20.3788 34.7664 20.3495 34.5248 20.0601 34.2357C19.7559 33.9317 19.529 33.9172 15.0582 33.9172C10.6844 33.9172 10.3501 33.9373 9.99875 34.2217ZM18.1479 36.8631V37.5796H14.9608H11.7738V36.8631V36.1465H14.9608H18.1479V36.8631ZM36.1546 42.914V47.7707H33.2863H30.418V42.914V38.0573H33.2863H36.1546V42.914Z" fill="white"/>
</svg>
