<svg width="1439" height="387" viewBox="0 0 1439 387" fill="none" xmlns="http://www.w3.org/2000/svg">
<path d="M0 340.033L48 278.19C96 216.926 192 92.3701 288 92.8046C384 92.3701 480 216.926 576 208.67C672 200.994 768 61.9554 864 15.6091C960 -30.7372 1106 38.7823 1202 92.8047C1298 147.406 1392 215.912 1440 247.341V386.379H1392C1344 386.379 1248 386.379 1152 386.379C1056 386.379 960 386.379 864 386.379C768 386.379 672 386.379 576 386.379C480 386.379 384 386.379 288 386.379C192 386.379 96 386.379 48 386.379H0V340.033Z" fill="white" fill-opacity="0.55"/>
</svg>
