<svg width="1439" height="295" viewBox="0 0 1439 295" fill="none" xmlns="http://www.w3.org/2000/svg">
<path d="M0 243.791L48 252.225C96 261.296 192 277.211 288 201.299C384 124.432 404 134.173 554.5 41.7738C705 -50.6259 864 41.7738 864 41.7738C864 41.7738 1042.5 130.099 1138.5 173.068C1234.5 216.036 1292.82 121.326 1392 133.504C1410.8 135.812 1440 141.938 1440 141.938V294.717H1392C1344 294.717 1248 294.717 1152 294.717C1056 294.717 960 294.717 864 294.717C768 294.717 672 294.717 576 294.717C480 294.717 384 294.717 288 294.717C192 294.717 96 294.717 48 294.717H0V243.791Z" fill="white"/>
</svg>
