<svg width="1439" height="415" viewBox="0 0 1439 415" fill="none" xmlns="http://www.w3.org/2000/svg">
<path d="M0 44.2214L48 28.7243C96 13.8066 192 -18.0564 288 13.3721C384 44.2214 480 136.914 576 160.087C672 183.26 768 136.914 864 129.238C960 120.982 1056 152.846 1152 152.411C1248 152.846 1344 120.982 1392 106.065L1440 90.5677V414.992H1392C1344 414.992 1248 414.992 1152 414.992C1056 414.992 960 414.992 864 414.992C768 414.992 672 414.992 576 414.992C480 414.992 384 414.992 288 414.992C192 414.992 96 414.992 48 414.992H0V44.2214Z" fill="white" fill-opacity="0.35"/>
</svg>
