<?xml version="1.0" standalone="no"?>
<!DOCTYPE svg PUBLIC "-//W3C//DTD SVG 20010904//EN"
 "http://www.w3.org/TR/2001/REC-SVG-20010904/DTD/svg10.dtd">
<svg version="1.0" xmlns="http://www.w3.org/2000/svg"
 width="512.000000pt" height="512.000000pt" viewBox="0 0 512.000000 512.000000"
 preserveAspectRatio="xMidYMid meet">

<g transform="translate(0.000000,512.000000) scale(0.100000,-0.100000)"
fill="#fff" stroke="none">
<path d="M2375 4793 c-921 -80 -1710 -724 -1963 -1603 -68 -235 -87 -373 -86
-635 0 -249 16 -372 78 -597 165 -600 591 -1117 1154 -1402 178 -90 427 -169
652 -208 170 -29 511 -32 675 -5 511 84 939 305 1286 664 270 280 456 611 553
985 58 222 71 325 70 573 0 238 -16 365 -69 569 -192 739 -777 1345 -1517
1570 -247 76 -580 111 -833 89z m454 -329 c265 -39 514 -128 738 -265 252
-154 495 -403 648 -664 369 -626 348 -1419 -53 -2025 -70 -106 -176 -240 -190
-240 -4 0 -16 33 -26 73 -44 171 -148 372 -271 524 -209 260 -522 443 -870
509 -122 24 -368 24 -490 0 -495 -94 -889 -407 -1081 -860 -24 -56 -51 -134
-60 -173 -10 -40 -21 -73 -26 -73 -14 0 -118 132 -190 240 -402 603 -422 1398
-53 2025 152 259 398 511 648 664 221 135 478 228 737 266 124 19 411 18 539
-1z m2 -2377 c131 -34 229 -77 334 -145 218 -142 376 -347 459 -593 27 -82 56
-238 56 -307 0 -42 -1 -43 -75 -91 -484 -316 -1092 -396 -1643 -215 -125 41
-333 141 -446 214 l-79 51 6 78 c36 462 351 859 788 992 128 39 206 49 359 45
113 -3 166 -9 241 -29z"/>
<path d="M2415 4146 c-218 -43 -405 -168 -525 -353 -89 -136 -125 -259 -125
-433 0 -174 36 -297 124 -432 243 -371 737 -478 1104 -238 370 241 477 737
237 1103 -112 173 -272 287 -480 343 -78 22 -250 26 -335 10z m260 -321 c256
-67 415 -329 350 -578 -45 -173 -178 -307 -350 -352 -251 -65 -513 94 -580
350 -89 343 237 669 580 580z"/>
</g>
</svg>
