<svg width="50" height="50" viewBox="0 0 50 50" fill="none" xmlns="http://www.w3.org/2000/svg">
<path fill-rule="evenodd" clip-rule="evenodd" d="M23.7845 0.178866C22.9619 0.400581 22.2167 0.8009 21.8508 1.21754L21.5665 1.54093L19.6806 1.5768C17.869 1.61121 17.7612 1.6249 16.952 1.92257C16.4886 2.09306 15.8372 2.43121 15.5044 2.67404L14.8994 3.11551L9.32945 3.14474L3.7594 3.17397L2.92231 3.48338C1.75727 3.9139 1.0317 4.46809 0.468045 5.35788L0 6.09654V26.587V47.0774L0.468045 47.8161C1.0317 48.7059 1.75727 49.2601 2.92231 49.6906L3.7594 50H25H46.2406L47.0777 49.6906C48.2427 49.2601 48.9683 48.7059 49.532 47.8161L50 47.0774V26.587V6.09654L49.532 5.35788C48.9683 4.46809 48.2427 3.9139 47.0777 3.48338L46.2406 3.17397L40.6705 3.14474L35.1006 3.11551L34.4956 2.67404C34.1628 2.43121 33.5114 2.09306 33.048 1.92257C32.2388 1.6249 32.131 1.61121 30.3194 1.5768L28.4335 1.54093L28.143 1.21041C27.5687 0.556505 26.0799 -0.00706928 24.9459 6.70438e-05C24.6655 0.00182669 24.1429 0.0822814 23.7845 0.178866ZM26.1147 1.84691C26.3318 1.96754 26.6202 2.23559 26.7555 2.44255C27.1782 3.08892 27.3234 3.12509 29.4932 3.12509C31.8619 3.12509 32.2533 3.20457 33.087 3.85495C33.9039 4.49224 34.0226 4.82579 34.0226 6.48464V7.81747H25H15.9774V6.48464C15.9774 4.82579 16.0961 4.49224 16.913 3.85495C17.7494 3.20262 18.1348 3.12509 20.5442 3.12509H22.513L22.848 2.8457C23.0322 2.69203 23.2957 2.42114 23.4336 2.2439C23.9685 1.55579 25.2492 1.36623 26.1147 1.84691ZM24.3051 3.36509C23.6835 3.84997 24.1239 4.68922 25 4.68922C25.5152 4.68922 26.0025 4.30904 26.0025 3.90716C26.0025 3.50527 25.5152 3.12509 25 3.12509C24.7559 3.12509 24.499 3.21376 24.3051 3.36509ZM13.9969 6.78994L13.9586 8.89095L14.2732 9.13623L14.5876 9.3816H25H35.4124L35.7268 9.13623L36.0414 8.89095L36.0031 6.78994L35.9649 4.68902L40.7123 4.68912C44.0729 4.68922 45.6103 4.72392 45.9754 4.80809C46.6638 4.96675 47.7019 5.77658 47.9053 6.31356C48.1268 6.89855 48.1268 46.2754 47.9053 46.8604C47.7019 47.3974 46.6638 48.2072 45.9754 48.3659C45.2269 48.5384 4.77306 48.5384 4.02456 48.3659C3.33622 48.2072 2.29812 47.3974 2.09474 46.8604C1.87318 46.2754 1.87318 6.89855 2.09474 6.31356C2.28333 5.81559 3.33233 4.96822 3.94737 4.81699C4.23221 4.74699 6.07782 4.70564 9.21053 4.69909L14.0351 4.68902L13.9969 6.78994ZM4.25501 6.49334L3.94737 6.73324V26.587V46.4407L4.25501 46.6806L4.56253 46.9206H25H45.4375L45.745 46.6806L46.0526 46.4407V26.587V6.73324L45.745 6.49334L45.4375 6.25335H42.0426H38.6477L38.3402 6.49334C38.1462 6.64457 38.0326 6.84498 38.0326 7.03541C38.0326 7.22584 38.1462 7.42625 38.3402 7.57748C38.6477 7.81747 38.6481 7.81747 41.3477 7.81747H44.0476V26.587V45.3565H25H5.95238V26.587V7.81747H8.65226C11.3519 7.81747 11.3523 7.81747 11.6598 7.57748C11.8538 7.42625 11.9674 7.22584 11.9674 7.03541C11.9674 6.84498 11.8538 6.64457 11.6598 6.49334L11.3523 6.25335H7.95739H4.56253L4.25501 6.49334ZM15.2662 18.1996L12.9731 19.9789L11.6738 18.9816C10.5738 18.1372 10.3134 17.9843 9.97494 17.9843C9.43622 17.9843 8.9599 18.359 8.9599 18.7826C8.9599 19.062 9.17957 19.2724 10.7504 20.4978C12.3596 21.7532 12.5845 21.8946 12.9716 21.8946C13.3659 21.8946 13.6382 21.7105 16.1936 19.7171C18.694 17.7666 18.985 17.5063 18.985 17.2198C18.985 16.7926 18.5096 16.4202 17.9645 16.4202C17.6065 16.4202 17.2917 16.6278 15.2662 18.1996ZM22.3001 18.2243C22.1061 18.3755 21.9925 18.5759 21.9925 18.7664C21.9925 18.9568 22.1061 19.1572 22.3001 19.3084L22.6076 19.5484H31.5163H40.4249L40.7325 19.3084C40.9264 19.1572 41.0401 18.9568 41.0401 18.7664C41.0401 18.5759 40.9264 18.3755 40.7325 18.2243L40.4249 17.9843H31.5163H22.6076L22.3001 18.2243ZM15.2662 26.8022L12.9731 28.5816L11.6738 27.5843C10.5738 26.7399 10.3134 26.587 9.97494 26.587C9.43622 26.587 8.9599 26.9617 8.9599 27.3853C8.9599 27.6647 9.17957 27.875 10.7504 29.1005C12.3596 30.3558 12.5845 30.4973 12.9716 30.4973C13.3659 30.4973 13.6382 30.3132 16.1936 28.3197C18.694 26.3693 18.985 26.1089 18.985 25.8225C18.985 25.3953 18.5096 25.0229 17.9645 25.0229C17.6065 25.0229 17.2917 25.2305 15.2662 26.8022ZM22.3001 26.827C22.1061 26.9782 21.9925 27.1786 21.9925 27.369C21.9925 27.5595 22.1061 27.7599 22.3001 27.9111L22.6076 28.1511H31.5163H40.4249L40.7325 27.9111C40.9264 27.7599 41.0401 27.5595 41.0401 27.369C41.0401 27.1786 40.9264 26.9782 40.7325 26.827L40.4249 26.587H31.5163H22.6076L22.3001 26.827ZM15.2662 35.4049L12.9731 37.1843L11.6738 36.187C10.5738 35.3426 10.3134 35.1897 9.97494 35.1897C9.43622 35.1897 8.9599 35.5644 8.9599 35.988C8.9599 36.2674 9.17957 36.4777 10.7504 37.7032C12.3596 38.9585 12.5845 39.1 12.9716 39.1C13.3659 39.1 13.6382 38.9159 16.1936 36.9224C18.694 34.972 18.985 34.7116 18.985 34.4252C18.985 33.998 18.5096 33.6256 17.9645 33.6256C17.6065 33.6256 17.2917 33.8332 15.2662 35.4049ZM22.3001 35.4297C22.1061 35.5809 21.9925 35.7813 21.9925 35.9717C21.9925 36.1622 22.1061 36.3626 22.3001 36.5138L22.6076 36.7538H31.5163H40.4249L40.7325 36.5138C40.9264 36.3626 41.0401 36.1622 41.0401 35.9717C41.0401 35.7813 40.9264 35.5809 40.7325 35.4297L40.4249 35.1897H31.5163H22.6076L22.3001 35.4297Z" fill="white"/>
</svg>
