<svg width="30" height="30" viewBox="0 0 30 30" fill="none" xmlns="http://www.w3.org/2000/svg">
<path opacity="0.7" d="M27.5875 29.25C24.1833 29.25 20.8652 28.4911 17.6331 26.9732C14.3999 25.4563 11.5367 23.4508 9.0435 20.9565C6.54922 18.4633 4.54367 15.6001 3.02683 12.3669C1.50894 9.13481 0.75 5.81667 0.75 2.4125C0.75 1.9375 0.908333 1.54167 1.225 1.225C1.54167 0.908333 1.9375 0.75 2.4125 0.75H8.825C9.19445 0.75 9.52431 0.86875 9.81458 1.10625C10.1049 1.34375 10.2764 1.64722 10.3292 2.01667L11.3583 7.55833C11.4111 7.92778 11.4048 8.26397 11.3393 8.56692C11.2728 8.87092 11.1208 9.14167 10.8833 9.37917L7.08333 13.2583C8.19167 15.1583 9.57708 16.9396 11.2396 18.6021C12.9021 20.2646 14.7361 21.7028 16.7417 22.9167L20.4625 19.1958C20.7 18.9583 21.0103 18.7799 21.3935 18.6607C21.7756 18.5424 22.1514 18.5097 22.5208 18.5625L27.9833 19.6708C28.3528 19.75 28.6562 19.9279 28.8937 20.2044C29.1313 20.482 29.25 20.8056 29.25 21.175V27.5875C29.25 28.0625 29.0917 28.4583 28.775 28.775C28.4583 29.0917 28.0625 29.25 27.5875 29.25Z" fill="#EAB200"/>
</svg>
