<svg width="32" height="32" viewBox="0 0 32 32" fill="none" xmlns="http://www.w3.org/2000/svg">
<path opacity="0.7" d="M15.9998 31.8334C13.8359 31.8334 11.7908 31.4175 9.86442 30.5857C7.93803 29.755 6.256 28.6203 4.81834 27.1816C3.37962 25.7439 2.24489 24.0619 1.41417 22.1355C0.582393 20.2091 0.166504 18.164 0.166504 16.0001C0.166504 13.8098 0.582393 11.7583 1.41417 9.84566C2.24489 7.93194 3.37962 6.25625 4.81834 4.81858C6.256 3.37986 7.93803 2.24461 9.86442 1.41283C11.7908 0.582109 13.8359 0.166748 15.9998 0.166748C18.1901 0.166748 20.2416 0.582109 22.1543 1.41283C24.068 2.24461 25.7437 3.37986 27.1813 4.81858C28.6201 6.25625 29.7548 7.93194 30.5855 9.84566C31.4173 11.7583 31.8332 13.8098 31.8332 16.0001V18.2959C31.8332 19.8529 31.2991 21.1786 30.2308 22.2732C29.1616 23.3689 27.8484 23.9167 26.2915 23.9167C25.3415 23.9167 24.4575 23.7056 23.6394 23.2834C22.8214 22.8612 22.1484 22.307 21.6207 21.6209C20.9082 22.3334 20.0706 22.8944 19.1079 23.304C18.1442 23.7125 17.1082 23.9167 15.9998 23.9167C13.8096 23.9167 11.9428 23.1446 10.3996 21.6003C8.85531 20.0571 8.08317 18.1904 8.08317 16.0001C8.08317 13.8098 8.85531 11.9425 10.3996 10.3982C11.9428 8.85503 13.8096 8.08341 15.9998 8.08341C18.1901 8.08341 20.0574 8.85503 21.6017 10.3982C23.1449 11.9425 23.9165 13.8098 23.9165 16.0001V18.2959C23.9165 19.0612 24.154 19.6613 24.629 20.0962C25.104 20.5321 25.6582 20.7501 26.2915 20.7501C26.9248 20.7501 27.479 20.5321 27.954 20.0962C28.429 19.6613 28.6665 19.0612 28.6665 18.2959V16.0001C28.6665 12.5431 27.4194 9.56752 24.9251 7.07325C22.4319 4.58003 19.4568 3.33341 15.9998 3.33341C12.5429 3.33341 9.56728 4.58003 7.073 7.07325C4.57978 9.56752 3.33317 12.5431 3.33317 16.0001C3.33317 19.457 4.57978 22.4321 7.073 24.9253C9.56728 27.4196 12.5429 28.6667 15.9998 28.6667H23.9165V31.8334H15.9998ZM15.9998 20.7501C17.3193 20.7501 18.4408 20.2883 19.3644 19.3647C20.288 18.4411 20.7498 17.3195 20.7498 16.0001C20.7498 14.6806 20.288 13.5591 19.3644 12.6355C18.4408 11.7119 17.3193 11.2501 15.9998 11.2501C14.6804 11.2501 13.5589 11.7119 12.6353 12.6355C11.7116 13.5591 11.2498 14.6806 11.2498 16.0001C11.2498 17.3195 11.7116 18.4411 12.6353 19.3647C13.5589 20.2883 14.6804 20.7501 15.9998 20.7501Z" fill="#EAB200"/>
</svg>
