<svg width="36" height="20" viewBox="0 0 36 20" fill="none" xmlns="http://www.w3.org/2000/svg">
<path opacity="0.7" d="M10.0831 14.75C11.4025 14.75 12.5239 14.2882 13.4475 13.3646C14.3711 12.441 14.8329 11.3194 14.8329 10C14.8329 8.68056 14.3711 7.55903 13.4475 6.63542C12.5239 5.71181 11.4025 5.25 10.0831 5.25C8.76369 5.25 7.64221 5.71181 6.71864 6.63542C5.79507 7.55903 5.33329 8.68056 5.33329 10C5.33329 11.3194 5.79507 12.441 6.71864 13.3646C7.64221 14.2882 8.76369 14.75 10.0831 14.75ZM10.0831 19.5C7.4443 19.5 5.20135 18.5764 3.35421 16.7292C1.50707 14.8819 0.583496 12.6389 0.583496 10C0.583496 7.36111 1.50707 5.11806 3.35421 3.27083C5.20135 1.42361 7.4443 0.5 10.0831 0.5C12.2205 0.5 14.0877 1.10694 15.6847 2.32083C17.2806 3.53472 18.3952 5.03889 19.0285 6.83333H32.2488L35.4153 9.92083L29.0822 16.3333L25.9157 13.1667L22.7492 16.3333L19.5827 13.1667H19.0285C18.3688 15.0667 17.221 16.5972 15.5849 17.7583C13.9489 18.9194 12.1149 19.5 10.0831 19.5Z" fill="#EAB200"/>
</svg>
