<svg width="35" height="24" viewBox="0 0 35 24" fill="none" xmlns="http://www.w3.org/2000/svg">
<path opacity="0.7" d="M17.4167 19C19.3958 19 21.0784 18.3076 22.4643 16.9227C23.8492 15.5367 24.5417 13.8542 24.5417 11.875C24.5417 9.89583 23.8492 8.21328 22.4643 6.82733C21.0784 5.44244 19.3958 4.75 17.4167 4.75C15.4375 4.75 13.7549 5.44244 12.369 6.82733C10.9841 8.21328 10.2917 9.89583 10.2917 11.875C10.2917 13.8542 10.9841 15.5367 12.369 16.9227C13.7549 18.3076 15.4375 19 17.4167 19ZM17.4167 16.15C16.2292 16.15 15.2201 15.7341 14.3893 14.9023C13.5576 14.0716 13.1417 13.0625 13.1417 11.875C13.1417 10.6875 13.5576 9.67786 14.3893 8.84608C15.2201 8.01536 16.2292 7.6 17.4167 7.6C18.6042 7.6 19.6138 8.01536 20.4456 8.84608C21.2763 9.67786 21.6917 10.6875 21.6917 11.875C21.6917 13.0625 21.2763 14.0716 20.4456 14.9023C19.6138 15.7341 18.6042 16.15 17.4167 16.15ZM17.4167 23.75C13.5639 23.75 10.0542 22.6744 6.8875 20.5232C3.72083 18.373 1.425 15.4903 0 11.875C1.425 8.25972 3.72083 5.37647 6.8875 3.22525C10.0542 1.07508 13.5639 0 17.4167 0C21.2694 0 24.7792 1.07508 27.9458 3.22525C31.1125 5.37647 33.4083 8.25972 34.8333 11.875C33.4083 15.4903 31.1125 18.373 27.9458 20.5232C24.7792 22.6744 21.2694 23.75 17.4167 23.75Z" fill="#FFDC6C"/>
</svg>
